<?xml version="1.0" encoding="UTF-8" standalone="no"?>
<!-- Created with Inkscape (http://www.inkscape.org/) -->

<svg
   width="800px"
   height="800px"
   viewBox="0 0 800 800"
   version="1.1"
   id="SVGRoot"
   sodipodi:docname="Resistor.svg"
   inkscape:version="1.2.1 (9c6d41e410, 2022-07-14)"
   xmlns:inkscape="http://www.inkscape.org/namespaces/inkscape"
   xmlns:sodipodi="http://sodipodi.sourceforge.net/DTD/sodipodi-0.dtd"
   xmlns="http://www.w3.org/2000/svg"
   xmlns:svg="http://www.w3.org/2000/svg">
  <sodipodi:namedview
     id="namedview651"
     pagecolor="#ffffff"
     bordercolor="#000000"
     borderopacity="0.25"
     inkscape:showpageshadow="2"
     inkscape:pageopacity="0.0"
     inkscape:pagecheckerboard="0"
     inkscape:deskcolor="#d1d1d1"
     inkscape:document-units="px"
     showgrid="false"
     inkscape:zoom="0.74653479"
     inkscape:cx="723.34204"
     inkscape:cy="302.73204"
     inkscape:window-width="1920"
     inkscape:window-height="1024"
     inkscape:window-x="0"
     inkscape:window-y="26"
     inkscape:window-maximized="1"
     inkscape:current-layer="layer1-7" />
  <defs
     id="defs646" />
  <g
     inkscape:label="Layer 1"
     inkscape:groupmode="layer"
     id="layer1">
    <g
       inkscape:label="ResitorObject"
       inkscape:groupmode="layer"
       id="layer1-7"
       transform="matrix(5.4779537,0,0,5.4779537,-2.0164408,-284.96286)">
      <rect

         style="fill:#ff0000;stroke-width:0.264583"
         id="blockC"
         width="8.33708"
         height="18.600506"
         x="74.746452"
         y="-130.38742"
         inkscape:label="colorC"
         transform="scale(1,-1)" />
      <rect
         style="fill:#00ff00;stroke-width:0.264583"
         id="blockA"
         width="8.33708"
         height="18.600506"
         x="58.492207"
         y="-129.8788"
         inkscape:label="colorA"
         transform="scale(1,-1)" />
      <rect
         style="fill:#00ffff;stroke-width:0.264583"
         id="blockB"
         width="8.33708"
         height="18.600506"
         x="66.075096"
         y="-129.89503"
         inkscape:label="colorB"
         transform="scale(1,-1)" />
      <path
         style="fill:#000000;stroke-width:0.264583"
         d="m 17.66317,157.58801 c -1.564981,-0.50986 -2.612162,-1.38083 -3.399533,-2.82749 l -0.692627,-1.27258 0.07227,-15.69566 0.07227,-15.69565 c -0.07868,-6.8952 8.844262,-7.17647 11.779311,-7.23463 l 4.648221,-0.0909 0.858567,-1.78842 c 2.216555,-4.61716 6.727693,-8.22115 11.782584,-9.41322 2.116434,-0.4991 5.994275,-0.49493 7.98354,0.009 2.397561,0.60688 5.231312,2.14995 7.11052,3.8719 l 1.691304,1.54977 h 14.600999 14.601 l 1.74743,-1.57712 c 1.9448,-1.75525 4.67123,-3.24018 7.05889,-3.84455 1.98926,-0.50353 5.867104,-0.50771 7.983544,-0.009 5.05489,1.19207 9.56602,4.79606 11.78258,9.41322 l 0.85857,1.78842 4.64189,0.0937 c 5.19194,-0.25024 11.71456,2.33386 11.78564,7.22007 l 0.0723,15.70154 0.0723,15.70155 -0.70365,1.29283 c -0.8405,1.54428 -2.13955,2.50769 -3.9388,2.92112 -2.91394,0.66956 -5.90413,-1.20235 -6.74263,-4.22102 -0.16146,-0.58125 -0.26646,-6.0748 -0.26735,-13.98789 l -0.001,-13.03073 -2.44739,0.009 -2.4474,0.009 -1.01677,2.102 c -1.80988,3.74161 -5.47879,7.06871 -9.43427,8.55534 -6.12279,2.30118 -13.184824,0.93711 -17.462504,-3.37298 l -1.19062,-1.19965 -14.9136,-0.009 -14.913598,-0.009 -1.541293,1.42696 c -5.560121,5.14732 -13.71881,5.74063 -20.45321,1.48747 -2.445432,-1.54443 -4.918596,-4.30467 -6.164172,-6.87968 l -1.016773,-2.10203 -2.438254,-0.009 -2.438254,-0.009 -0.07529,13.55989 c -0.07386,13.30375 -0.08604,13.57989 -0.64485,14.61823 -1.375328,2.55556 -4.259458,3.79485 -6.859894,2.94764 z m 3.044629,-4.30623 c 0.538017,-0.68398 0.548479,-0.94746 0.55418,-13.95677 0.0055,-12.50325 0.03479,-13.32347 0.513784,-14.37865 0.795957,-1.75341 1.753063,-2.1861 4.838218,-2.18729 l 2.579688,-9.9e-4 v -1.98437 -1.98438 h -3.580373 c -4.766646,0 -6.165348,0.60688 -7.622503,3.3073 -0.56197,1.04144 -0.57232,1.28631 -0.648732,15.34583 -0.04271,7.85812 -0.0099,14.55842 0.07288,14.88954 0.410559,1.64208 2.315988,2.19167 3.292861,0.94978 z m 109.549971,0.1747 c 0.28734,-0.28734 0.59018,-0.79335 0.67297,-1.12448 0.0828,-0.33112 0.11558,-7.03142 0.0729,-14.88954 -0.0764,-14.05952 -0.0868,-14.30439 -0.64873,-15.34583 -1.45716,-2.70042 -2.85586,-3.3073 -7.6225,-3.3073 h -3.58038 v 1.98438 1.98437 l 2.57969,10e-4 c 3.08516,0.001 4.04226,0.43388 4.83822,2.18729 0.47907,1.05536 0.5083,1.87606 0.51378,14.42635 l 0.006,13.30734 0.64944,0.64943 c 0.78411,0.78412 1.80999,0.83584 2.51883,0.127 z M 50.933912,133.66527 c 1.644446,-0.58459 3.425039,-1.71734 4.693594,-2.9859 l 0.818245,-0.81824 v -9.21554 -9.21555 l -1.351867,-1.21544 c -5.214546,-4.68833 -13.504598,-4.1144 -18.422492,1.27541 -2.42216,2.65458 -3.508973,5.53231 -3.508973,9.29127 0,6.31764 4.192047,11.63779 10.451041,13.26347 1.823588,0.47365 5.449305,0.2857 7.320452,-0.37948 z m -7.320452,-3.79548 c -0.873125,-0.29892 -2.070767,-0.913 -2.661425,-1.36461 -2.179095,-1.66613 -3.820866,-4.59154 -3.820866,-6.80827 v -1.05549 h 1.822637 1.822638 l 0.181446,0.99219 c 0.436684,2.38788 2.453995,4.46317 4.621025,4.75383 l 1.077253,0.14449 v 1.94953 1.94954 l -0.727604,-0.009 c -0.400182,-0.005 -1.441979,-0.25343 -2.315104,-0.55235 z m 62.43132,3.77 c 5.49968,-1.96018 9.13847,-7.08023 9.13847,-12.85851 0,-7.14085 -4.80005,-12.62577 -11.93479,-13.63766 -4.089004,-0.57992 -7.570624,0.66431 -10.746974,3.84066 l -1.98423,1.98422 h -3.27742 -3.27742 v 7.80521 7.80521 h 3.34902 3.34902 l 1.76039,1.78594 c 2.97631,3.01949 5.6343,4.10169 9.665534,3.93532 1.53586,-0.0634 2.94117,-0.29784 3.9584,-0.66039 z m 1.23352,-14.29408 c -0.36026,-1.40566 -1.75625,-3.24999 -2.91251,-3.84792 -0.39061,-0.20199 -1.15257,-0.45025 -1.69324,-0.55168 l -0.98305,-0.18442 v -1.97818 -1.97819 l 1.12448,0.18715 c 2.31233,0.38485 3.98133,1.21836 5.49986,2.74667 1.66882,1.67958 2.52015,3.29938 2.85442,5.43103 l 0.23072,1.47125 h -1.8943 -1.8943 z m -42.895045,1.428 v -7.80521 h -1.98438 -1.984374 v 7.80521 7.80521 h 1.984374 1.98438 z m 7.937501,0 v -7.80521 h -1.98438 -1.984371 v 7.80521 7.80521 h 1.984371 1.98438 z m 7.67291,0 v -7.80521 h -1.98437 -1.98438 v 7.80521 7.80521 h 1.98438 1.98437 z"
         id="path312"
         sodipodi:nodetypes="cscccccsssscccsssscccccsssccccsssccccsscccssccscsscccssscsscsccsccccsccsccsscccssssscsscccsscccsccsssscccccccsssssscccssscccsccccccccccccccccccccccccccc"
         inkscape:label="resistor" />
    </g>
  </g>
</svg>
